<svg width="30" height="46" viewBox="0 0 30 46" fill="none" xmlns="http://www.w3.org/2000/svg">
<path fill-rule="evenodd" clip-rule="evenodd" d="M15.0002 21C12.3179 21 9.82545 21.782 7.75471 23.1209L13.9016 26.8317V28.884C14.2551 28.8062 14.6222 28.7615 15.0002 28.7615C17.7201 28.7615 19.9268 30.8828 19.9268 33.5C19.9268 36.1158 17.7201 38.2371 15.0002 38.2371C12.2795 38.2371 10.0743 36.1158 10.0743 33.5C10.0743 32.1262 10.6855 30.8927 11.6566 30.0271C8.85219 29.4776 6.30512 28.2506 4.20811 26.53C2.81389 28.5212 2 30.9193 2 33.5C2 40.4031 7.82073 46 15.0002 46C22.1796 46 28 40.4031 28 33.5C28 26.5969 22.1796 21 15.0002 21Z" fill="#CAFC9D"/>
<path fill-rule="evenodd" clip-rule="evenodd" d="M29 14.5007C29 22.5093 22.5078 29 14.4998 29C6.49218 29 0 22.5093 0 14.5007C0 6.49275 6.49218 0 14.4998 0C22.5078 0 29 6.49275 29 14.5007Z" fill="#CAFC9D"/>
<path fill-rule="evenodd" clip-rule="evenodd" d="M26.9946 3C28.6602 2.95474 30 1.3325 30 0H22C23.9097 0.728109 25.6046 1.75399 26.9946 3Z" fill="#CAFC9D"/>
<path fill-rule="evenodd" clip-rule="evenodd" d="M14.5002 21C10.7086 21 7.31069 22.708 5 25.4089C7.44766 27.5603 10.6033 28.8965 14.0655 29C14.2083 28.9856 14.3536 28.9772 14.5002 28.9772C14.6468 28.9772 14.7917 28.9856 14.9355 29C18.3964 28.8965 21.5534 27.561 24 25.4089C21.6897 22.708 18.2918 21 14.5002 21Z" fill="#FCF5FF"/>
</svg>
